<mxfile host="app.diagrams.net" modified="2024-02-01T10:22:05.242Z" agent="Mozilla/5.0 (Macintosh; Intel Mac OS X 10_15_7) AppleWebKit/537.36 (KHTML, like Gecko) Chrome/118.0.0.0 Safari/537.36" version="23.1.0" etag="tnAkZcBHBJEi2OViZkBC" type="github">
  <diagram name="第 1 页" id="AOOtPxxxZ_Aq3175Q8V1">
    <mxGraphModel>
      <root>
        <mxCell id="0" />
        <mxCell id="1" parent="0" />
      </root>
    </mxGraphModel>
  </diagram>
</mxfile>
